<svg version="1.1" id="Layer_1" xmlns="http://www.w3.org/2000/svg" xmlns:xlink="http://www.w3.org/1999/xlink" x="0px" y="0px"
	 width="100%" viewBox="0 0 1000 148" enable-background="new 0 0 1000 148" xml:space="preserve">
<path fill="#000000" opacity="1.000000" stroke="none" 
	d="
M916.000000,149.000000 
	C611.070984,149.000000 306.141968,149.000000 1.106486,149.000000 
	C1.106486,99.749344 1.106486,50.498383 1.106486,1.000000 
	C265.689240,1.000000 530.378540,1.000000 795.868652,1.305059 
	C793.592041,2.809813 790.521973,4.028767 787.435913,5.205898 
	C773.785828,10.412521 761.889709,18.463997 750.773315,27.782393 
	C747.904297,30.187290 746.980713,35.075855 748.941040,37.424976 
	C750.975281,39.862862 755.507446,39.766251 758.575378,36.858902 
	C767.279724,28.610144 777.221863,22.212006 788.140625,17.450878 
	C800.328247,12.136468 812.898499,10.207259 826.174927,13.567474 
	C837.285889,16.379646 847.257263,21.404848 856.349854,28.028666 
	C865.415039,34.632580 873.572937,42.489555 882.688599,49.014885 
	C897.937378,59.930622 914.830872,67.066017 933.939575,66.887115 
	C944.005615,66.792862 953.763855,64.110832 962.921570,59.910892 
	C975.087769,54.331257 986.274475,47.183739 995.832703,37.676388 
	C998.753235,34.771389 998.221191,31.395035 995.541199,29.443005 
	C993.907959,28.253380 990.024475,28.331501 988.231995,29.498957 
	C980.666565,34.426311 973.778992,40.410881 966.137207,45.201126 
	C953.499084,53.123352 939.349915,57.000984 924.613708,54.770252 
	C906.940369,52.094875 891.927246,43.013390 878.751770,31.165955 
	C864.667297,18.501253 849.726807,7.479757 830.910095,2.881353 
	C830.479248,2.776053 830.297791,1.649953 830.000000,1.000006 
	C886.933533,1.000000 943.867065,1.000000 1000.900269,1.000000 
	C1000.900269,50.209152 1000.900269,99.418571 1000.900269,149.000000 
	C983.979187,149.000000 966.955627,149.000000 949.145264,148.682068 
	C953.843262,146.232117 959.444580,144.355164 964.788879,141.915497 
	C976.233643,136.690948 986.535583,129.673965 995.564453,120.895523 
	C997.927856,118.597748 998.847595,115.657692 996.273071,112.835129 
	C993.754028,110.073349 990.992981,110.246391 987.996155,112.410583 
	C980.163574,118.066925 972.525879,124.078346 964.255920,129.020203 
	C955.653015,134.161011 946.165833,137.395370 935.955383,138.019226 
	C919.217346,139.041885 904.632568,132.955978 891.385681,123.692657 
	C878.464172,114.656807 866.694641,103.920135 853.505493,95.334076 
	C837.733215,85.066483 819.864319,80.667412 801.070923,84.172089 
	C781.574707,87.807861 765.245667,98.128624 750.491821,111.032135 
	C747.525085,113.626747 746.922546,118.507927 749.376770,120.520821 
	C752.490906,123.074974 755.826599,122.503494 758.618713,119.810936 
	C767.469360,111.275734 777.697754,104.870552 788.932129,100.026993 
	C802.251892,94.284317 815.830200,93.217224 829.877258,97.419754 
	C846.064453,102.262543 859.141968,112.025627 871.453918,123.017487 
	C884.063293,134.274902 898.048523,142.916931 914.592834,147.077560 
	C915.185547,147.226608 915.536377,148.337418 916.000000,149.000000 
M345.008575,121.737656 
	C345.808563,124.201057 346.608551,126.664452 347.408569,129.127853 
	C347.947632,129.217667 348.486725,129.307480 349.025787,129.397293 
	C350.001984,126.879402 351.623413,124.361694 351.624146,121.843521 
	C351.624420,120.889458 347.888397,119.934303 345.982758,118.110001 
	C345.987823,116.443420 346.152710,114.758743 345.966431,113.113831 
	C345.506073,109.048279 343.105499,106.045975 339.117554,106.197891 
	C335.510956,106.335266 330.392731,103.273972 328.872528,108.207153 
	C325.937531,107.151901 322.747467,104.870895 320.013947,105.326843 
	C317.012085,105.827538 314.430725,108.849518 311.491547,110.894432 
	C310.444885,106.138435 307.956482,102.444939 301.737335,106.632446 
	C301.599243,106.725433 301.257172,106.461678 301.005798,106.448357 
	C296.361816,106.202118 291.717133,105.968712 286.804352,105.718956 
	C286.804352,109.597321 286.804352,112.475807 286.804352,116.846657 
	C286.256195,114.935852 286.037659,114.499100 286.016785,114.053101 
	C285.668671,106.611031 283.306641,105.129112 273.677155,104.919403 
	C266.137451,104.755211 269.947723,110.225441 269.026611,113.347382 
	C268.845612,113.960693 269.035675,114.675453 268.989685,115.338928 
	C268.944733,115.987648 268.816772,116.630615 268.725220,117.276108 
	C268.438324,112.587166 267.864960,107.949623 262.769257,106.407097 
	C257.998444,104.962944 253.301132,105.674820 249.899872,111.301315 
	C249.899872,108.630981 249.899872,106.997444 249.899872,105.196663 
	C245.284836,105.196663 240.849579,105.196663 235.985260,105.196663 
	C235.985260,108.048676 235.985260,110.717369 235.985260,113.386055 
	C234.168457,105.841705 233.970428,105.857216 225.530487,105.681488 
	C222.582458,105.620102 219.785751,103.269890 217.117889,107.232529 
	C216.504745,108.143234 211.523575,106.113129 207.822769,105.270157 
	C208.393448,112.917549 208.876175,119.386322 209.345123,125.670547 
	C211.694336,125.670547 213.762375,125.670547 216.176544,125.670547 
	C216.176544,121.438354 216.176544,117.532234 216.176544,113.626114 
	C216.472488,113.624512 216.768417,113.622917 217.064362,113.621315 
	C217.064362,117.691780 217.064362,121.762245 217.064362,125.684441 
	C220.008286,125.684441 222.412994,125.684441 224.707565,125.684441 
	C225.010483,120.745346 225.293579,116.129387 225.576675,111.513428 
	C226.107468,111.549309 226.638260,111.585190 227.169052,111.621078 
	C226.928925,116.279648 226.688797,120.938225 226.445679,125.654793 
	C232.029053,125.654793 237.923782,125.654793 244.177872,125.654793 
	C244.177872,122.953346 244.177872,120.526253 244.177872,118.215851 
	C246.276535,117.973351 248.002075,117.773964 249.727615,117.574577 
	C249.449570,117.883102 249.171539,118.191620 248.893494,118.500145 
	C251.246475,120.651535 253.277847,123.894600 256.026093,124.704193 
	C260.393066,125.990631 265.117096,125.334129 268.088501,120.453491 
	C268.088501,122.195900 268.088501,123.938309 268.088501,125.819672 
	C272.453796,126.102020 277.017548,127.351540 276.015198,118.828400 
	C277.213623,122.294304 277.826660,124.067223 278.332550,125.530304 
	C283.602844,125.530304 288.665070,125.530304 294.216187,125.530304 
	C294.216187,121.258698 294.216187,117.042053 294.216187,112.825401 
	C294.492401,112.839050 294.768585,112.852692 295.044800,112.866333 
	C295.044800,117.150024 295.044800,121.433716 295.044800,126.790138 
	C300.688721,123.812691 306.209747,125.386757 311.701050,124.903099 
	C311.914337,123.640518 312.102814,122.524834 312.097260,122.557732 
	C315.018280,124.059357 317.734039,126.247314 320.766296,126.854378 
	C327.718628,128.246231 326.669739,121.754837 327.683899,117.430313 
	C328.050812,117.653793 328.417725,117.877274 328.784637,118.100754 
	C328.927734,120.661957 329.070831,123.223160 329.209076,125.697716 
	C335.545807,126.794327 340.858398,125.653938 345.008575,121.737656 
M151.999847,71.413551 
	C152.906616,62.764965 153.813385,54.116383 154.720154,45.467796 
	C161.808960,59.079575 167.809692,72.747185 174.118484,86.271103 
	C174.750916,87.626846 177.253983,88.810600 178.884995,88.805580 
	C180.562927,88.800415 183.159805,87.646049 183.753204,86.292503 
	C186.484009,80.063377 188.561554,73.552162 191.051392,67.212013 
	C194.041641,59.597610 197.212082,52.053967 200.497879,44.006077 
	C201.716003,53.982624 203.090897,63.218143 203.813858,72.504417 
	C204.008987,75.010818 202.886749,79.270302 201.226562,79.955132 
	C196.605042,81.861542 196.789246,84.880516 197.205978,88.740402 
	C207.819351,88.740402 218.229691,88.740402 228.819092,88.740402 
	C228.819092,86.198174 228.819092,83.911575 228.819092,81.624969 
	C228.488251,81.860092 228.157410,82.095207 227.826569,82.330322 
	C225.957153,80.049507 223.384216,78.033562 222.400009,75.419456 
	C221.223587,72.294807 221.395569,68.659744 221.001923,65.243652 
	C220.046371,56.951641 219.363403,48.617241 218.068512,40.378838 
	C217.052872,33.917149 218.502548,30.737570 224.783478,28.327459 
	C224.783478,26.029488 224.783478,23.739899 224.783478,21.569872 
	C216.574371,21.569872 208.584686,21.569872 200.325027,21.569872 
	C195.144958,35.509205 189.829071,49.814072 184.015961,65.456947 
	C177.344040,49.934086 171.277252,35.819111 165.153549,21.571732 
	C156.860535,21.571732 148.585083,21.571732 140.128906,21.571732 
	C139.706665,25.349386 140.368118,28.320744 144.491379,29.990873 
	C145.680527,30.472546 146.937180,32.682484 146.880295,34.046593 
	C146.413300,45.245739 146.037064,56.477047 144.771545,67.600548 
	C144.265533,72.048241 142.764923,78.313408 139.639801,80.083115 
	C134.869965,82.784195 136.253326,85.427002 136.269577,88.615479 
	C144.090378,88.615479 151.479889,88.615479 158.807877,88.615479 
	C158.807877,85.923935 158.807877,83.619019 158.807877,81.226913 
	C152.573486,81.130234 152.387833,76.643509 151.999847,71.413551 
M805.858887,42.002789 
	C804.779236,42.329536 803.720642,42.797878 802.616821,42.962013 
	C782.130676,46.008270 765.481201,56.422535 750.452759,69.999123 
	C747.599365,72.576874 746.719971,75.518959 749.202332,78.590607 
	C751.949585,81.990173 754.907776,81.287827 758.020508,78.563950 
	C766.691223,70.976341 776.025940,64.410645 786.635132,59.654659 
	C799.073242,54.078789 811.680664,51.386818 825.279663,54.633339 
	C841.408936,58.483910 855.047363,66.948120 867.060547,77.812073 
	C877.157288,86.942924 887.895081,94.812851 900.163269,100.611076 
	C921.900818,110.884781 943.557739,110.364220 965.283875,100.345848 
	C976.439575,95.201729 985.953491,87.743370 995.349304,80.081970 
	C998.362915,77.624733 998.272583,74.106255 996.483765,71.028244 
	C994.931396,68.357254 990.023987,68.759285 987.021667,71.469063 
	C977.353027,80.195610 966.752136,87.404243 954.513184,92.134285 
	C943.522339,96.381973 932.543762,98.307655 920.728394,95.444687 
	C902.326050,90.985619 887.847107,80.298996 873.672607,68.464371 
	C865.050842,61.265911 855.646790,54.615955 845.672119,49.526600 
	C833.708923,43.422668 820.453796,40.908630 805.858887,42.002789 
M488.968384,58.130566 
	C488.459747,59.306004 487.951111,60.481441 487.172546,62.280689 
	C481.785919,48.160439 476.655548,34.711861 471.508789,21.220259 
	C463.339020,20.732504 463.443115,20.768099 460.748444,28.648546 
	C457.084412,39.364090 453.241852,50.018597 449.075104,61.835773 
	C446.108826,51.642883 443.361328,42.461239 440.873657,33.209717 
	C440.651093,32.381989 441.884460,30.485849 442.830688,30.135023 
	C447.555176,28.383253 447.395874,24.959543 446.718201,21.515379 
	C436.000122,21.515379 425.591553,21.515379 414.348694,21.515379 
	C415.356873,24.368561 416.051056,27.143709 417.299316,29.641996 
	C418.597382,32.239967 421.039551,34.368069 421.931305,37.050716 
	C427.639374,54.221855 433.058258,71.489113 438.582520,88.756828 
	C448.132812,89.420624 448.032562,89.386581 451.019257,80.591454 
	C454.574615,70.121689 458.324341,59.717926 462.302734,48.395115 
	C467.643555,62.516571 472.607117,75.640442 477.611572,88.872437 
	C480.858337,88.872437 484.160889,88.872437 487.424744,88.872437 
	C487.961090,87.255264 488.506226,85.778694 488.942352,84.270622 
	C492.654358,71.435600 496.172546,58.540852 500.131439,45.782722 
	C501.686005,40.772873 503.226990,35.166313 506.584442,31.480581 
	C509.731506,28.025835 510.207001,25.127363 509.781860,21.509924 
	C502.424042,21.509924 495.349213,21.509924 487.049438,21.509924 
	C488.146942,24.478075 488.340271,28.024828 490.130127,29.262274 
	C495.068726,32.676590 495.884247,33.878780 494.071686,39.768944 
	C492.280884,45.588417 490.681000,51.466637 488.968384,58.130566 
M265.295135,88.999634 
	C272.745026,89.021805 267.411560,83.802429 268.983917,81.255432 
	C261.151428,80.560913 259.005157,78.247734 259.001465,70.952927 
	C258.995575,59.302143 258.998901,47.651348 258.999695,36.000561 
	C259.000214,28.604496 261.141846,27.243357 267.652771,31.063238 
	C269.556885,32.180344 271.107361,34.464375 272.051117,36.559826 
	C277.058075,47.676918 273.451569,55.915054 262.617432,59.116283 
	C261.554413,59.430386 260.181458,61.137161 260.224243,62.143421 
	C260.279663,63.445999 261.611542,65.787621 262.397217,65.789024 
	C267.645691,65.798386 273.379150,66.550156 278.052155,64.735535 
	C291.338409,59.576244 293.371399,47.857315 291.707977,36.837570 
	C290.691071,30.100782 286.661072,24.533482 279.333801,23.273512 
	C273.701324,22.304974 267.892853,22.166327 262.154694,22.050192 
	C252.931198,21.863516 243.701157,22.000107 233.536194,22.000107 
	C234.133850,24.082115 234.257721,28.415836 235.732285,28.938429 
	C240.691605,30.696060 240.841843,34.517677 240.917816,38.240822 
	C241.145264,49.387650 241.081100,60.542969 240.961060,71.693146 
	C240.910263,76.412460 240.137177,80.924858 234.245850,81.334793 
	C234.245850,84.056152 234.245850,86.324265 234.245850,88.999847 
	C244.436996,88.999847 254.387756,88.999847 265.295135,88.999634 
M682.898499,80.997902 
	C681.267273,79.510002 678.513123,78.219673 678.210266,76.498039 
	C677.206604,70.794334 677.086365,64.935181 676.627197,59.135677 
	C677.190002,58.735710 677.752869,58.335747 678.315674,57.935780 
	C680.713562,59.331131 684.610168,60.254940 685.225647,62.211102 
	C687.003723,67.862251 690.679321,67.085320 694.772217,66.857086 
	C694.772217,58.687263 694.772217,50.919590 694.772217,42.897507 
	C690.612488,43.373367 686.122559,42.450527 685.564270,48.608650 
	C685.482178,49.514702 683.134460,50.462933 681.686157,50.927235 
	C680.266235,51.382439 678.656433,51.245045 677.200806,51.362034 
	C677.200806,43.964294 677.200806,36.684750 677.200806,29.433874 
	C689.709839,27.959072 692.714355,29.745966 696.784241,41.272522 
	C699.658081,40.670330 702.589966,40.055969 705.352722,39.477039 
	C704.727112,33.041157 704.150574,27.109863 703.604980,21.496674 
	C686.555603,21.496674 669.491089,21.496674 652.211487,21.496674 
	C651.757202,25.206608 651.112793,28.843090 656.413757,30.264101 
	C657.574768,30.575325 658.867249,33.051064 658.888062,34.546818 
	C659.077820,48.196846 659.083557,61.851810 658.885803,75.501625 
	C658.862915,77.084908 657.601135,79.633415 656.357483,80.042213 
	C651.491211,81.641747 651.730652,84.956665 652.230347,88.999489 
	C669.372925,88.999489 686.171814,89.071861 702.967163,88.862442 
	C704.314026,88.845650 706.441711,87.115532 706.818542,85.787659 
	C707.916016,81.921051 708.726257,77.859184 708.772461,73.863754 
	C708.790955,72.255745 706.822571,69.771996 705.227295,69.218925 
	C703.331055,68.561493 700.374512,65.826416 698.814758,70.880280 
	C696.335999,78.912033 692.524109,80.998116 682.898499,80.997902 
M394.447174,46.079445 
	C391.293823,44.384995 387.660950,43.198364 385.148163,40.825546 
	C383.338165,39.116386 382.008240,35.667999 382.379974,33.295555 
	C382.644592,31.606674 385.938690,29.589733 388.156525,29.167515 
	C393.724121,28.107590 397.922272,31.146900 398.804474,37.436317 
	C399.494751,42.357208 402.246796,42.371719 405.653992,41.904938 
	C407.335876,41.674530 408.925964,40.774296 409.999146,40.381519 
	C409.999146,35.903378 410.267059,31.943733 409.860565,28.054560 
	C409.708771,26.601942 408.277893,24.719536 406.926544,24.050611 
	C400.070984,20.657141 392.550018,20.335373 385.213440,21.156330 
	C378.256348,21.934820 372.118500,24.851650 368.931305,31.954954 
	C363.700775,43.612171 369.264801,55.508240 380.387512,61.074692 
	C384.911255,63.338634 389.454681,65.573647 393.885529,68.010201 
	C399.032135,70.840363 400.163177,75.193016 396.852509,78.643829 
	C392.870422,82.794472 382.924164,81.788033 380.413666,76.713501 
	C379.374420,74.612892 379.310059,71.986588 379.008362,69.573601 
	C378.394043,64.660767 374.683594,66.074799 371.808807,66.047035 
	C369.277832,66.022583 366.905365,66.288689 366.928070,69.968185 
	C366.948151,73.223145 366.244385,76.475998 366.044495,79.741066 
	C365.895477,82.174988 365.999451,83.778427 369.167358,85.337273 
	C378.126343,89.745834 387.536377,89.769447 396.748016,88.790016 
	C411.314270,87.241257 417.856232,75.022011 413.978973,62.741604 
	C411.064606,53.510983 403.265350,49.729889 394.447174,46.079445 
M323.025085,31.877670 
	C326.765289,29.349165 331.215637,27.188765 328.567474,21.568089 
	C318.095612,21.568089 307.686249,21.568089 297.189270,21.568089 
	C296.643311,25.420982 297.025055,28.398619 301.328247,30.349867 
	C302.865112,31.046747 303.825348,34.496166 303.883453,36.719654 
	C304.148773,46.874702 303.398224,57.085842 304.158264,67.190659 
	C305.033691,78.829887 306.410126,85.433640 318.948212,88.087929 
	C326.103607,89.602707 334.015381,88.674309 341.402496,87.590858 
	C346.862335,86.790070 350.147003,82.068703 351.589081,76.768723 
	C352.481812,73.487602 352.874481,69.990196 352.939148,66.579399 
	C353.115967,57.253716 352.737640,47.910744 353.154236,38.600349 
	C353.285339,35.670498 354.446136,31.820024 356.538727,30.165920 
	C359.871796,27.531298 360.387573,24.918036 359.751740,21.570471 
	C352.436584,21.570471 345.361633,21.570471 338.006012,21.570471 
	C338.407135,25.024603 337.371674,28.758451 342.284729,30.298288 
	C343.568298,30.700592 344.844238,33.448574 344.877655,35.143818 
	C345.104065,46.634056 345.165649,58.134361 344.929260,69.624184 
	C344.800079,75.904495 340.505951,80.529053 335.477936,81.025009 
	C327.969299,81.765656 323.436829,78.208824 323.091492,71.179306 
	C322.468323,58.494354 322.626556,45.770981 322.473907,33.063473 
	C322.472443,32.940311 322.681335,32.814625 323.025085,31.877670 
M566.501282,61.006527 
	C561.186584,48.992363 555.910217,36.960922 550.520386,24.980560 
	C549.590393,22.913355 548.896973,19.890318 545.530945,21.069292 
	C543.580750,21.752369 540.872437,22.689280 540.206055,24.241907 
	C534.206055,38.222019 528.711365,52.418304 522.777649,66.428001 
	C520.791565,71.117294 518.644104,76.063362 515.309509,79.752251 
	C512.700989,82.637947 511.550781,85.033257 512.255005,88.798294 
	C519.068665,88.798294 525.836487,88.798294 532.886780,88.798294 
	C533.126404,85.243660 532.894348,82.264725 529.527161,80.019943 
	C528.486694,79.326294 527.991882,77.014572 528.161255,75.549362 
	C528.306702,74.291237 529.658997,72.263885 530.644287,72.160164 
	C536.691650,71.523582 542.808167,70.932770 548.851501,71.258484 
	C550.564026,71.350777 552.384399,74.391670 553.585388,76.418114 
	C554.021912,77.154633 553.124268,79.663704 552.275757,80.015839 
	C547.790833,81.877151 549.135681,85.376884 549.064636,88.813354 
	C559.503052,88.813354 569.597412,88.813354 580.682129,88.813354 
	C579.721375,85.923882 579.265198,83.281555 578.008301,81.100662 
	C576.513367,78.506615 573.969666,76.507561 572.530579,73.892853 
	C570.373962,69.974434 568.783813,65.744278 566.501282,61.006527 
M103.049477,84.051399 
	C103.049477,85.623146 103.049477,87.194901 103.049477,88.649872 
	C113.743973,88.649872 123.799034,88.649872 135.718079,88.649872 
	C133.536163,85.028297 132.059708,82.460770 130.463669,79.969856 
	C129.410416,78.326042 127.878326,76.932022 127.084732,75.187714 
	C119.481796,58.476555 111.989159,41.715218 104.469116,24.966368 
	C103.469231,22.739389 102.753860,20.749674 99.373032,20.837063 
	C96.182388,20.919535 95.013351,22.449614 94.021202,24.873047 
	C88.674805,37.932201 83.463074,51.049793 77.878685,64.006638 
	C75.515930,69.488686 73.010963,75.154503 69.324165,79.733109 
	C66.938049,82.696411 65.453079,84.977089 66.354515,88.753784 
	C73.195206,88.753784 79.948624,88.753784 88.521729,88.753784 
	C86.543633,85.252663 84.915749,82.788811 83.730621,80.127785 
	C82.933983,78.339027 82.214706,76.174980 82.531662,74.366531 
	C82.705292,73.375877 85.043411,72.258453 86.507210,72.091850 
	C91.566116,71.516068 96.683449,71.468414 101.751564,70.953888 
	C105.309959,70.592636 106.284973,72.349030 107.356247,75.415047 
	C108.449852,78.545029 107.854660,79.914391 105.044876,81.082031 
	C104.292725,81.394600 103.871704,82.504005 103.049477,84.051399 
M596.985291,56.310738 
	C600.995789,66.116928 605.076721,75.895340 608.962891,85.750542 
	C609.838440,87.970840 610.742065,89.561874 613.395813,88.988129 
	C615.795105,88.469398 618.564087,90.370476 620.175232,86.117149 
	C625.918884,70.954086 632.241455,56.007465 638.508728,41.047588 
	C640.047119,37.375599 641.376770,32.812050 644.285278,30.714371 
	C648.240356,27.861830 648.430359,25.138119 647.642822,21.552799 
	C640.682190,21.552799 634.039062,21.552799 625.807800,21.552799 
	C627.421143,24.561775 629.040161,27.008881 630.072388,29.682537 
	C630.945740,31.944838 631.851624,34.590199 631.468018,36.849579 
	C630.889954,40.254505 629.291260,43.507690 627.964844,46.759476 
	C625.353699,53.160828 622.631470,59.516853 619.842346,66.160347 
	C615.367981,54.129799 611.144348,42.773529 606.826660,31.164310 
	C612.088623,29.411049 613.374268,25.864241 612.611206,21.316675 
	C610.642273,21.579670 609.068604,21.960266 607.492371,21.971607 
	C599.664307,22.027937 591.835266,21.959246 584.007324,22.020687 
	C583.173584,22.027231 581.601685,22.807234 581.619812,22.870548 
	C582.311829,25.282883 582.893372,27.788166 584.049133,29.986975 
	C584.988037,31.773355 587.056152,32.990620 587.900330,34.798042 
	C591.091370,41.630146 593.987732,48.599918 596.985291,56.310738 
M55.562935,23.903492 
	C49.811310,22.935724 44.075073,21.268984 38.304935,21.141920 
	C25.247122,20.854374 14.909492,26.558201 9.387916,38.479099 
	C3.465747,51.264854 4.049996,64.457924 12.010915,76.320091 
	C23.217091,93.017860 51.182026,93.047600 63.055614,80.738937 
	C62.068428,76.750916 60.477249,74.498314 55.950649,77.439957 
	C54.107777,78.637550 51.756714,79.118896 49.581043,79.726051 
	C43.548115,81.409653 33.988628,78.577477 30.607334,74.070755 
	C23.199434,64.197205 21.320999,44.514305 29.663012,33.586849 
	C33.093605,29.093008 37.400833,28.549353 42.366722,28.962894 
	C47.311874,29.374712 49.267292,32.532001 50.080112,36.934727 
	C50.453045,38.954758 51.067722,40.930153 51.591461,42.999653 
	C52.792877,42.999653 53.793373,42.922501 54.778488,43.012897 
	C59.242821,43.422565 61.636311,42.008396 61.075851,36.942955 
	C60.682217,33.385296 60.999821,29.748947 60.999821,25.925444 
	C59.653069,25.364544 58.005989,24.678562 55.562935,23.903492 
M380.110779,105.373978 
	C378.734253,106.859695 376.855927,108.125557 376.088104,109.877968 
	C374.598724,113.277328 373.733612,116.950226 372.908417,119.563965 
	C371.645905,119.332863 370.642731,119.302734 369.765167,118.955299 
	C368.143768,118.313393 366.596039,117.485512 365.017609,116.735092 
	C366.468262,115.489738 367.847961,114.142403 369.409393,113.056297 
	C369.930756,112.693649 370.916748,112.999023 371.841980,112.999023 
	C371.841980,110.611855 371.841980,108.647926 371.845490,106.682480 
	C365.811371,104.399826 361.152161,106.118080 358.238831,111.250046 
	C355.606171,115.887589 357.157593,124.221909 360.940735,125.150734 
	C366.093353,126.415794 371.708038,125.943718 377.120697,125.880623 
	C378.182770,125.868248 379.122284,124.043282 380.320099,123.602013 
	C381.002502,123.350624 382.065918,124.327980 383.005615,124.541039 
	C385.153534,125.028030 387.336304,125.621689 389.491119,125.572052 
	C389.868256,125.563362 390.632599,122.565361 390.418488,121.061821 
	C390.042419,118.421173 389.048340,115.868538 388.301270,113.237457 
	C389.907349,113.237457 391.323425,113.237457 393.130524,113.237457 
	C393.130524,117.563942 393.130524,121.667198 393.130524,125.727654 
	C395.605591,125.727654 397.679443,125.727654 399.503479,125.727654 
	C400.027710,122.384911 400.399261,119.325668 401.033112,116.321754 
	C401.278503,115.158813 402.117737,114.121185 402.686462,113.026466 
	C403.124603,114.242607 403.862274,115.437805 403.949036,116.678520 
	C404.323517,122.033058 407.181366,126.630646 411.227020,126.921074 
	C416.434082,127.294884 421.688263,127.012047 426.869812,127.012047 
	C427.009979,124.288368 427.120178,122.147423 427.230347,120.006485 
	C427.679504,120.005615 428.128662,120.004753 428.577820,120.003883 
	C428.822632,121.941895 429.067413,123.879898 429.295685,125.686890 
	C432.001923,125.686890 434.402405,125.686890 436.861816,125.686890 
	C436.861816,119.081253 436.861816,112.788559 436.861816,106.282623 
	C434.308502,105.790543 431.858765,105.318428 429.212982,104.808540 
	C429.019836,108.819977 428.847534,112.398445 428.675201,115.976913 
	C428.104065,115.936356 427.532928,115.895798 426.961792,115.855240 
	C427.210754,112.658592 427.459686,109.461945 427.709839,106.249702 
	C425.133850,106.249702 422.719482,106.249702 420.114777,106.249702 
	C420.114777,110.461777 420.114777,114.429474 420.114777,119.647026 
	C417.054657,118.560951 414.537506,117.667595 412.020386,116.774246 
	C413.948212,115.086342 415.876038,113.398438 417.803833,111.710533 
	C418.141602,112.009598 418.479340,112.308670 418.817078,112.607742 
	C418.817078,110.497192 418.817078,108.386650 418.817078,106.520157 
	C413.302399,103.711349 409.102753,105.835152 405.228638,110.128830 
	C405.035736,108.425705 404.911682,107.330368 404.779297,106.161636 
	C399.545197,106.161636 394.409454,106.161636 389.423096,106.161636 
	C388.985077,107.838089 388.595734,109.328308 388.206360,110.818527 
	C387.096985,106.729408 385.680756,103.860825 380.110779,105.373978 
M467.545380,115.899124 
	C467.244568,112.673210 466.943726,109.447296 466.643372,106.226593 
	C464.360046,106.226593 462.258453,106.226593 460.209839,106.226593 
	C460.023071,107.761513 459.864441,109.065475 459.705780,110.369446 
	C459.511078,110.356407 459.316376,110.343361 459.121643,110.330322 
	C459.033173,108.942741 458.944702,107.555168 458.864319,106.294189 
	C453.322113,106.294189 448.239166,106.294189 443.134827,106.294189 
	C443.134827,108.547157 443.134827,110.505150 443.134827,112.771095 
	C444.426697,112.926025 445.626190,113.069885 447.143799,113.251884 
	C447.143799,117.681664 447.143799,121.769730 447.143799,125.772690 
	C449.934082,125.772690 452.346161,125.772690 455.101105,125.772690 
	C455.101105,121.461197 455.101105,117.364059 455.101105,113.221771 
	C456.528290,113.221771 457.598602,113.221771 459.057495,113.221771 
	C459.057495,117.849220 459.057495,122.279572 459.057495,127.326660 
	C461.656311,126.909042 464.412231,127.249229 465.768036,126.031097 
	C467.161713,124.778954 467.188751,122.005669 467.813843,119.898048 
	C468.112030,119.966698 468.410248,120.035347 468.708466,120.103996 
	C468.896790,121.989944 469.085144,123.875893 469.274292,125.769821 
	C471.964478,125.769821 474.398102,125.769821 477.172333,125.769821 
	C477.172333,123.877136 477.172333,122.212929 477.172333,120.548721 
	C477.816040,120.948700 477.847137,121.391296 478.028931,121.759483 
	C479.999847,125.751099 483.253387,127.549919 487.630432,126.950104 
	C491.577576,126.409210 492.469788,123.722939 492.074951,120.145721 
	C491.999725,119.463966 493.233734,118.684158 493.247925,117.937912 
	C493.304138,114.971146 493.674347,111.837044 492.868439,109.074059 
	C491.994904,106.079315 489.241211,103.914963 485.967285,105.127419 
	C482.671906,106.347824 479.756134,108.593330 476.912476,110.250671 
	C476.912476,109.748497 476.912476,108.024384 476.912476,106.361023 
	C474.209351,105.799164 471.866119,105.312111 469.351166,104.789360 
	C469.038605,108.732857 468.754639,112.315865 467.545380,115.899124 
M139.909576,109.560654 
	C140.077667,112.294640 140.245773,115.028633 140.413239,117.752274 
	C140.038208,119.811798 138.907623,124.012611 139.304001,124.162010 
	C142.432114,125.340981 146.186096,126.954170 149.112961,126.143295 
	C155.521088,124.367958 156.183868,121.456444 153.587280,113.028046 
	C155.089142,113.107880 156.473526,113.181473 157.627380,113.242805 
	C158.204987,117.664848 158.728149,121.670242 159.263382,125.767990 
	C161.515488,125.767990 163.585007,125.767990 165.994232,125.767990 
	C165.994232,121.435013 165.994232,117.318703 165.994232,113.252594 
	C167.857117,112.999237 169.375504,112.792725 170.985336,112.573776 
	C169.666809,117.012726 168.398819,121.281487 166.956314,126.137810 
	C170.308868,124.729683 174.706985,128.896378 176.544891,123.156372 
	C177.361526,123.602173 178.130737,124.228531 179.004196,124.457886 
	C181.118927,125.013184 183.286545,125.640182 185.422150,125.604088 
	C185.832047,125.597168 186.777557,122.561363 186.464401,121.146851 
	C185.601166,117.247696 183.593353,113.534027 183.164169,109.623428 
	C182.592651,104.416168 179.723480,104.097214 176.117844,105.540596 
	C174.098953,106.348793 172.581024,108.408386 171.085800,109.691017 
	C171.042252,109.100075 170.938156,107.688011 170.845032,106.424561 
	C163.206604,105.939713 155.799179,105.568855 148.411591,104.958138 
	C144.790558,104.658783 141.884537,105.421417 139.909576,109.560654 
M509.000793,110.339302 
	C508.885925,111.052834 508.771027,111.766365 508.499115,113.455383 
	C507.532349,105.257164 507.374298,105.155762 499.130188,106.500740 
	C500.086487,111.405495 501.172272,116.290062 501.941528,121.223984 
	C502.297699,123.508331 501.690399,126.486313 505.274811,125.896561 
	C508.138397,125.425400 512.460083,126.558716 513.093689,121.228859 
	C513.572388,122.788956 514.051147,124.349045 514.557556,125.999420 
	C519.777710,125.999420 524.872314,126.070831 529.961731,125.939636 
	C530.988525,125.913162 532.550720,125.385643 532.912964,124.631401 
	C534.269958,121.805847 534.608887,122.190590 536.241150,124.640320 
	C537.039673,125.838799 540.164429,125.714470 542.216064,125.638687 
	C542.579651,125.625252 543.364502,122.784622 543.062195,121.451996 
	C541.802429,115.898193 540.201599,110.421776 538.769043,105.077782 
	C530.323364,104.910645 530.303467,104.904106 527.775024,112.588562 
	C526.687805,115.892876 525.702271,119.230637 524.670471,122.553200 
	C524.439758,122.505783 524.208984,122.458359 523.978271,122.410942 
	C524.828064,117.112991 525.677917,111.815033 526.586060,106.153450 
	C524.312500,105.890747 521.222107,104.597588 519.501709,105.616898 
	C517.996338,106.508804 518.031128,110.000175 517.638977,111.423241 
	C516.839417,110.300797 515.930298,107.695099 514.423645,107.285126 
	C512.931335,106.879028 510.836487,108.687103 509.000793,110.339302 
M732.018433,25.640682 
	C731.144226,24.106730 730.269958,22.572775 729.395691,21.038839 
	C728.267090,22.654633 727.028931,24.208824 726.066895,25.918327 
	C725.710754,26.551191 726.000427,27.549170 726.000427,28.380646 
	C725.999939,59.479023 725.987915,90.577415 726.035522,121.675735 
	C726.037903,123.257683 726.304626,124.945526 726.917236,126.384468 
	C727.356934,127.417183 728.579163,128.116730 729.452332,128.964905 
	C730.255920,128.070129 731.523621,127.287773 731.772888,126.258690 
	C732.420776,123.584717 732.942810,120.803207 732.950439,118.063026 
	C733.030640,89.293091 733.015442,60.522820 732.962341,31.752758 
	C732.959106,30.003460 732.411987,28.255165 732.018433,25.640682 
M568.444031,126.999168 
	C572.304932,126.754036 574.639832,125.221573 574.070740,120.824036 
	C573.955261,119.931076 575.114746,118.897987 575.057556,117.968208 
	C574.842896,114.479118 575.267151,110.531837 573.749634,107.653938 
	C572.071228,104.470932 568.201233,103.916618 564.678101,105.849541 
	C563.152466,106.686546 561.725403,107.703430 561.399841,107.910294 
	C559.201660,106.719231 557.667419,105.244858 556.023438,105.110077 
	C549.411011,104.567955 553.959900,111.802437 550.328918,113.503448 
	C549.764648,111.111542 549.184631,108.652672 548.462524,105.591530 
	C545.859497,106.158440 543.354980,106.703903 540.421143,107.342873 
	C541.646118,110.418274 542.557129,112.637375 543.414551,114.876984 
	C544.276428,117.128433 545.533508,119.345833 545.816345,121.675407 
	C546.292297,125.594521 548.391174,126.128410 551.806763,126.111282 
	C555.196350,126.094292 555.907715,124.643852 556.202820,121.670403 
	C556.446472,119.215973 557.642822,116.856125 558.581421,113.944603 
	C559.714905,124.129448 560.744690,125.562363 568.444031,126.999168 
M193.462708,125.999985 
	C195.642822,126.211784 197.568115,126.085449 196.993637,123.044014 
	C196.122894,118.434052 198.922058,115.119476 200.968323,111.520462 
	C201.926422,109.835350 202.749405,108.073410 203.633621,106.346283 
	C203.326340,105.931839 203.019043,105.517395 202.711761,105.102951 
	C199.506287,106.255417 196.300812,107.407875 193.090286,108.562149 
	C191.835449,105.071976 188.786041,104.574242 185.079224,107.356689 
	C186.465652,113.246849 187.600266,118.680199 189.134232,123.998344 
	C189.398987,124.916237 191.358841,125.345177 193.462708,125.999985 
z"/>
<path fill="#DCDCDC" opacity="1.000000" stroke="none" 
	d="
M916.468628,149.000000 
	C915.536377,148.337418 915.185547,147.226608 914.592834,147.077560 
	C898.048523,142.916931 884.063293,134.274902 871.453918,123.017487 
	C859.141968,112.025627 846.064453,102.262543 829.877258,97.419754 
	C815.830200,93.217224 802.251892,94.284317 788.932129,100.026993 
	C777.697754,104.870552 767.469360,111.275734 758.618713,119.810936 
	C755.826599,122.503494 752.490906,123.074974 749.376770,120.520821 
	C746.922546,118.507927 747.525085,113.626747 750.491821,111.032135 
	C765.245667,98.128624 781.574707,87.807861 801.070923,84.172089 
	C819.864319,80.667412 837.733215,85.066483 853.505493,95.334076 
	C866.694641,103.920135 878.464172,114.656807 891.385681,123.692657 
	C904.632568,132.955978 919.217346,139.041885 935.955383,138.019226 
	C946.165833,137.395370 955.653015,134.161011 964.255920,129.020203 
	C972.525879,124.078346 980.163574,118.066925 987.996155,112.410583 
	C990.992981,110.246391 993.754028,110.073349 996.273071,112.835129 
	C998.847595,115.657692 997.927856,118.597748 995.564453,120.895523 
	C986.535583,129.673965 976.233643,136.690948 964.788879,141.915497 
	C959.444580,144.355164 953.843262,146.232117 948.679199,148.682068 
	C938.312439,149.000000 927.624878,149.000000 916.468628,149.000000 
z"/>
<path fill="#DCDCDC" opacity="1.000000" stroke="none" 
	d="
M829.531372,1.000006 
	C830.297791,1.649953 830.479248,2.776053 830.910095,2.881353 
	C849.726807,7.479757 864.667297,18.501253 878.751770,31.165955 
	C891.927246,43.013390 906.940369,52.094875 924.613708,54.770252 
	C939.349915,57.000984 953.499084,53.123352 966.137207,45.201126 
	C973.778992,40.410881 980.666565,34.426311 988.231995,29.498957 
	C990.024475,28.331501 993.907959,28.253380 995.541199,29.443005 
	C998.221191,31.395035 998.753235,34.771389 995.832703,37.676388 
	C986.274475,47.183739 975.087769,54.331257 962.921570,59.910892 
	C953.763855,64.110832 944.005615,66.792862 933.939575,66.887115 
	C914.830872,67.066017 897.937378,59.930622 882.688599,49.014885 
	C873.572937,42.489555 865.415039,34.632580 856.349854,28.028666 
	C847.257263,21.404848 837.285889,16.379646 826.174927,13.567474 
	C812.898499,10.207259 800.328247,12.136468 788.140625,17.450878 
	C777.221863,22.212006 767.279724,28.610144 758.575378,36.858902 
	C755.507446,39.766251 750.975281,39.862862 748.941040,37.424976 
	C746.980713,35.075855 747.904297,30.187290 750.773315,27.782393 
	C761.889709,18.463997 773.785828,10.412521 787.435913,5.205898 
	C790.521973,4.028767 793.592041,2.809813 796.334717,1.305059 
	C807.020874,1.000000 818.041809,1.000000 829.531372,1.000006 
z"/>
<path fill="#FF4057" opacity="1.000000" stroke="none" 
	d="
M151.999878,71.859421 
	C152.387833,76.643509 152.573486,81.130234 158.807877,81.226913 
	C158.807877,83.619019 158.807877,85.923935 158.807877,88.615479 
	C151.479889,88.615479 144.090378,88.615479 136.269577,88.615479 
	C136.253326,85.427002 134.869965,82.784195 139.639801,80.083115 
	C142.764923,78.313408 144.265533,72.048241 144.771545,67.600548 
	C146.037064,56.477047 146.413300,45.245739 146.880295,34.046593 
	C146.937180,32.682484 145.680527,30.472546 144.491379,29.990873 
	C140.368118,28.320744 139.706665,25.349386 140.128906,21.571732 
	C148.585083,21.571732 156.860535,21.571732 165.153549,21.571732 
	C171.277252,35.819111 177.344040,49.934086 184.015961,65.456947 
	C189.829071,49.814072 195.144958,35.509205 200.325027,21.569872 
	C208.584686,21.569872 216.574371,21.569872 224.783478,21.569872 
	C224.783478,23.739899 224.783478,26.029488 224.783478,28.327459 
	C218.502548,30.737570 217.052872,33.917149 218.068512,40.378838 
	C219.363403,48.617241 220.046371,56.951641 221.001923,65.243652 
	C221.395569,68.659744 221.223587,72.294807 222.400009,75.419456 
	C223.384216,78.033562 225.957153,80.049507 227.826569,82.330322 
	C228.157410,82.095207 228.488251,81.860092 228.819092,81.624969 
	C228.819092,83.911575 228.819092,86.198174 228.819092,88.740402 
	C218.229691,88.740402 207.819351,88.740402 197.205978,88.740402 
	C196.789246,84.880516 196.605042,81.861542 201.226562,79.955132 
	C202.886749,79.270302 204.008987,75.010818 203.813858,72.504417 
	C203.090897,63.218143 201.716003,53.982624 200.497879,44.006077 
	C197.212082,52.053967 194.041641,59.597610 191.051392,67.212013 
	C188.561554,73.552162 186.484009,80.063377 183.753204,86.292503 
	C183.159805,87.646049 180.562927,88.800415 178.884995,88.805580 
	C177.253983,88.810600 174.750916,87.626846 174.118484,86.271103 
	C167.809692,72.747185 161.808960,59.079575 154.720154,45.467796 
	C153.813385,54.116383 152.906616,62.764965 151.999878,71.859421 
z"/>
<path fill="#DCDCDC" opacity="1.000000" stroke="none" 
	d="
M806.327698,42.001846 
	C820.453796,40.908630 833.708923,43.422668 845.672119,49.526600 
	C855.646790,54.615955 865.050842,61.265911 873.672607,68.464371 
	C887.847107,80.298996 902.326050,90.985619 920.728394,95.444687 
	C932.543762,98.307655 943.522339,96.381973 954.513184,92.134285 
	C966.752136,87.404243 977.353027,80.195610 987.021667,71.469063 
	C990.023987,68.759285 994.931396,68.357254 996.483765,71.028244 
	C998.272583,74.106255 998.362915,77.624733 995.349304,80.081970 
	C985.953491,87.743370 976.439575,95.201729 965.283875,100.345848 
	C943.557739,110.364220 921.900818,110.884781 900.163269,100.611076 
	C887.895081,94.812851 877.157288,86.942924 867.060547,77.812073 
	C855.047363,66.948120 841.408936,58.483910 825.279663,54.633339 
	C811.680664,51.386818 799.073242,54.078789 786.635132,59.654659 
	C776.025940,64.410645 766.691223,70.976341 758.020508,78.563950 
	C754.907776,81.287827 751.949585,81.990173 749.202332,78.590607 
	C746.719971,75.518959 747.599365,72.576874 750.452759,69.999123 
	C765.481201,56.422535 782.130676,46.008270 802.616821,42.962013 
	C803.720642,42.797878 804.779236,42.329536 806.327698,42.001846 
z"/>
<path fill="#DCDCDC" opacity="1.000000" stroke="none" 
	d="
M488.982849,57.724827 
	C490.681000,51.466637 492.280884,45.588417 494.071686,39.768944 
	C495.884247,33.878780 495.068726,32.676590 490.130127,29.262274 
	C488.340271,28.024828 488.146942,24.478075 487.049438,21.509924 
	C495.349213,21.509924 502.424042,21.509924 509.781860,21.509924 
	C510.207001,25.127363 509.731506,28.025835 506.584442,31.480581 
	C503.226990,35.166313 501.686005,40.772873 500.131439,45.782722 
	C496.172546,58.540852 492.654358,71.435600 488.942352,84.270622 
	C488.506226,85.778694 487.961090,87.255264 487.424744,88.872437 
	C484.160889,88.872437 480.858337,88.872437 477.611572,88.872437 
	C472.607117,75.640442 467.643555,62.516571 462.302734,48.395115 
	C458.324341,59.717926 454.574615,70.121689 451.019257,80.591454 
	C448.032562,89.386581 448.132812,89.420624 438.582520,88.756828 
	C433.058258,71.489113 427.639374,54.221855 421.931305,37.050716 
	C421.039551,34.368069 418.597382,32.239967 417.299316,29.641996 
	C416.051056,27.143709 415.356873,24.368561 414.348694,21.515379 
	C425.591553,21.515379 436.000122,21.515379 446.718201,21.515379 
	C447.395874,24.959543 447.555176,28.383253 442.830688,30.135023 
	C441.884460,30.485849 440.651093,32.381989 440.873657,33.209717 
	C443.361328,42.461239 446.108826,51.642883 449.075104,61.835773 
	C453.241852,50.018597 457.084412,39.364090 460.748444,28.648546 
	C463.443115,20.768099 463.339020,20.732504 471.508789,21.220259 
	C476.655548,34.711861 481.785919,48.160439 487.172546,62.280689 
	C487.951111,60.481441 488.459747,59.306004 488.982849,57.724827 
z"/>
<path fill="#DCDCDC" opacity="1.000000" stroke="none" 
	d="
M345.056793,120.932899 
	C340.858398,125.653938 335.545807,126.794327 329.209076,125.697716 
	C329.070831,123.223160 328.927734,120.661957 328.784637,118.100754 
	C328.417725,117.877274 328.050812,117.653793 327.683899,117.430313 
	C326.669739,121.754837 327.718628,128.246231 320.766296,126.854378 
	C317.734039,126.247314 315.018280,124.059357 312.097260,122.557732 
	C312.102814,122.524834 311.914337,123.640518 311.701050,124.903099 
	C306.209747,125.386757 300.688721,123.812691 295.044800,126.790138 
	C295.044800,121.433716 295.044800,117.150024 295.044800,112.866333 
	C294.768585,112.852692 294.492401,112.839050 294.216187,112.825401 
	C294.216187,117.042053 294.216187,121.258698 294.216187,125.530304 
	C288.665070,125.530304 283.602844,125.530304 278.332550,125.530304 
	C277.826660,124.067223 277.213623,122.294304 276.015198,118.828400 
	C277.017548,127.351540 272.453796,126.102020 268.088501,125.819672 
	C268.088501,123.938309 268.088501,122.195900 268.088501,120.453491 
	C265.117096,125.334129 260.393066,125.990631 256.026093,124.704193 
	C253.277847,123.894600 251.246475,120.651535 248.893494,118.500145 
	C249.171539,118.191620 249.449570,117.883102 249.727615,117.574577 
	C248.002075,117.773964 246.276535,117.973351 244.177872,118.215851 
	C244.177872,120.526253 244.177872,122.953346 244.177872,125.654793 
	C237.923782,125.654793 232.029053,125.654793 226.445679,125.654793 
	C226.688797,120.938225 226.928925,116.279648 227.169052,111.621078 
	C226.638260,111.585190 226.107468,111.549309 225.576675,111.513428 
	C225.293579,116.129387 225.010483,120.745346 224.707565,125.684441 
	C222.412994,125.684441 220.008286,125.684441 217.064362,125.684441 
	C217.064362,121.762245 217.064362,117.691780 217.064362,113.621315 
	C216.768417,113.622917 216.472488,113.624512 216.176544,113.626114 
	C216.176544,117.532234 216.176544,121.438354 216.176544,125.670547 
	C213.762375,125.670547 211.694336,125.670547 209.345123,125.670547 
	C208.876175,119.386322 208.393448,112.917549 207.822769,105.270157 
	C211.523575,106.113129 216.504745,108.143234 217.117889,107.232529 
	C219.785751,103.269890 222.582458,105.620102 225.530487,105.681488 
	C233.970428,105.857216 234.168457,105.841705 235.985260,113.386055 
	C235.985260,110.717369 235.985260,108.048676 235.985260,105.196663 
	C240.849579,105.196663 245.284836,105.196663 249.899872,105.196663 
	C249.899872,106.997444 249.899872,108.630981 249.899872,111.301315 
	C253.301132,105.674820 257.998444,104.962944 262.769257,106.407097 
	C267.864960,107.949623 268.438324,112.587166 268.725220,117.276108 
	C268.816772,116.630615 268.944733,115.987648 268.989685,115.338928 
	C269.035675,114.675453 268.845612,113.960693 269.026611,113.347382 
	C269.947723,110.225441 266.137451,104.755211 273.677155,104.919403 
	C283.306641,105.129112 285.668671,106.611031 286.016785,114.053101 
	C286.037659,114.499100 286.256195,114.935852 286.804352,116.846657 
	C286.804352,112.475807 286.804352,109.597321 286.804352,105.718956 
	C291.717133,105.968712 296.361816,106.202118 301.005798,106.448357 
	C301.257172,106.461678 301.599243,106.725433 301.737335,106.632446 
	C307.956482,102.444939 310.444885,106.138435 311.491547,110.894432 
	C314.430725,108.849518 317.012085,105.827538 320.013947,105.326843 
	C322.747467,104.870895 325.937531,107.151901 328.872528,108.207153 
	C330.392731,103.273972 335.510956,106.335266 339.117554,106.197891 
	C343.105499,106.045975 345.506073,109.048279 345.966431,113.113831 
	C346.152710,114.758743 345.987823,116.443420 345.961853,118.532684 
	C345.940918,118.955368 346.019318,118.913513 345.695618,119.022125 
	C345.225555,119.783089 345.079163,120.435448 344.960266,121.046265 
	C344.987732,121.004723 345.056793,120.932899 345.056793,120.932899 
z"/>
<path fill="#FF4057" opacity="1.000000" stroke="none" 
	d="
M264.816833,88.999741 
	C254.387756,88.999847 244.436996,88.999847 234.245850,88.999847 
	C234.245850,86.324265 234.245850,84.056152 234.245850,81.334793 
	C240.137177,80.924858 240.910263,76.412460 240.961060,71.693146 
	C241.081100,60.542969 241.145264,49.387650 240.917816,38.240822 
	C240.841843,34.517677 240.691605,30.696060 235.732285,28.938429 
	C234.257721,28.415836 234.133850,24.082115 233.536194,22.000107 
	C243.701157,22.000107 252.931198,21.863516 262.154694,22.050192 
	C267.892853,22.166327 273.701324,22.304974 279.333801,23.273512 
	C286.661072,24.533482 290.691071,30.100782 291.707977,36.837570 
	C293.371399,47.857315 291.338409,59.576244 278.052155,64.735535 
	C273.379150,66.550156 267.645691,65.798386 262.397217,65.789024 
	C261.611542,65.787621 260.279663,63.445999 260.224243,62.143421 
	C260.181458,61.137161 261.554413,59.430386 262.617432,59.116283 
	C273.451569,55.915054 277.058075,47.676918 272.051117,36.559826 
	C271.107361,34.464375 269.556885,32.180344 267.652771,31.063238 
	C261.141846,27.243357 259.000214,28.604496 258.999695,36.000561 
	C258.998901,47.651348 258.995575,59.302143 259.001465,70.952927 
	C259.005157,78.247734 261.151428,80.560913 268.983917,81.255432 
	C267.411560,83.802429 272.745026,89.021805 264.816833,88.999741 
z"/>
<path fill="#DCDCDC" opacity="1.000000" stroke="none" 
	d="
M683.336670,80.998886 
	C692.524109,80.998116 696.335999,78.912033 698.814758,70.880280 
	C700.374512,65.826416 703.331055,68.561493 705.227295,69.218925 
	C706.822571,69.771996 708.790955,72.255745 708.772461,73.863754 
	C708.726257,77.859184 707.916016,81.921051 706.818542,85.787659 
	C706.441711,87.115532 704.314026,88.845650 702.967163,88.862442 
	C686.171814,89.071861 669.372925,88.999489 652.230347,88.999489 
	C651.730652,84.956665 651.491211,81.641747 656.357483,80.042213 
	C657.601135,79.633415 658.862915,77.084908 658.885803,75.501625 
	C659.083557,61.851810 659.077820,48.196846 658.888062,34.546818 
	C658.867249,33.051064 657.574768,30.575325 656.413757,30.264101 
	C651.112793,28.843090 651.757202,25.206608 652.211487,21.496674 
	C669.491089,21.496674 686.555603,21.496674 703.604980,21.496674 
	C704.150574,27.109863 704.727112,33.041157 705.352722,39.477039 
	C702.589966,40.055969 699.658081,40.670330 696.784241,41.272522 
	C692.714355,29.745966 689.709839,27.959072 677.200806,29.433874 
	C677.200806,36.684750 677.200806,43.964294 677.200806,51.362034 
	C678.656433,51.245045 680.266235,51.382439 681.686157,50.927235 
	C683.134460,50.462933 685.482178,49.514702 685.564270,48.608650 
	C686.122559,42.450527 690.612488,43.373367 694.772217,42.897507 
	C694.772217,50.919590 694.772217,58.687263 694.772217,66.857086 
	C690.679321,67.085320 687.003723,67.862251 685.225647,62.211102 
	C684.610168,60.254940 680.713562,59.331131 678.315674,57.935780 
	C677.752869,58.335747 677.190002,58.735710 676.627197,59.135677 
	C677.086365,64.935181 677.206604,70.794334 678.210266,76.498039 
	C678.513123,78.219673 681.267273,79.510002 683.336670,80.998886 
z"/>
<path fill="#FF4057" opacity="1.000000" stroke="none" 
	d="
M394.750916,46.316586 
	C403.265350,49.729889 411.064606,53.510983 413.978973,62.741604 
	C417.856232,75.022011 411.314270,87.241257 396.748016,88.790016 
	C387.536377,89.769447 378.126343,89.745834 369.167358,85.337273 
	C365.999451,83.778427 365.895477,82.174988 366.044495,79.741066 
	C366.244385,76.475998 366.948151,73.223145 366.928070,69.968185 
	C366.905365,66.288689 369.277832,66.022583 371.808807,66.047035 
	C374.683594,66.074799 378.394043,64.660767 379.008362,69.573601 
	C379.310059,71.986588 379.374420,74.612892 380.413666,76.713501 
	C382.924164,81.788033 392.870422,82.794472 396.852509,78.643829 
	C400.163177,75.193016 399.032135,70.840363 393.885529,68.010201 
	C389.454681,65.573647 384.911255,63.338634 380.387512,61.074692 
	C369.264801,55.508240 363.700775,43.612171 368.931305,31.954954 
	C372.118500,24.851650 378.256348,21.934820 385.213440,21.156330 
	C392.550018,20.335373 400.070984,20.657141 406.926544,24.050611 
	C408.277893,24.719536 409.708771,26.601942 409.860565,28.054560 
	C410.267059,31.943733 409.999146,35.903378 409.999146,40.381519 
	C408.925964,40.774296 407.335876,41.674530 405.653992,41.904938 
	C402.246796,42.371719 399.494751,42.357208 398.804474,37.436317 
	C397.922272,31.146900 393.724121,28.107590 388.156525,29.167515 
	C385.938690,29.589733 382.644592,31.606674 382.379974,33.295555 
	C382.008240,35.667999 383.338165,39.116386 385.148163,40.825546 
	C387.660950,43.198364 391.293823,44.384995 394.750916,46.316586 
z"/>
<path fill="#FF4057" opacity="1.000000" stroke="none" 
	d="
M322.908539,32.283894 
	C322.681335,32.814625 322.472443,32.940311 322.473907,33.063473 
	C322.626556,45.770981 322.468323,58.494354 323.091492,71.179306 
	C323.436829,78.208824 327.969299,81.765656 335.477936,81.025009 
	C340.505951,80.529053 344.800079,75.904495 344.929260,69.624184 
	C345.165649,58.134361 345.104065,46.634056 344.877655,35.143818 
	C344.844238,33.448574 343.568298,30.700592 342.284729,30.298288 
	C337.371674,28.758451 338.407135,25.024603 338.006012,21.570471 
	C345.361633,21.570471 352.436584,21.570471 359.751740,21.570471 
	C360.387573,24.918036 359.871796,27.531298 356.538727,30.165920 
	C354.446136,31.820024 353.285339,35.670498 353.154236,38.600349 
	C352.737640,47.910744 353.115967,57.253716 352.939148,66.579399 
	C352.874481,69.990196 352.481812,73.487602 351.589081,76.768723 
	C350.147003,82.068703 346.862335,86.790070 341.402496,87.590858 
	C334.015381,88.674309 326.103607,89.602707 318.948212,88.087929 
	C306.410126,85.433640 305.033691,78.829887 304.158264,67.190659 
	C303.398224,57.085842 304.148773,46.874702 303.883453,36.719654 
	C303.825348,34.496166 302.865112,31.046747 301.328247,30.349867 
	C297.025055,28.398619 296.643311,25.420982 297.189270,21.568089 
	C307.686249,21.568089 318.095612,21.568089 328.567474,21.568089 
	C331.215637,27.188765 326.765289,29.349165 322.908539,32.283894 
z"/>
<path fill="#DCDCDC" opacity="1.000000" stroke="none" 
	d="
M566.727051,61.326614 
	C568.783813,65.744278 570.373962,69.974434 572.530579,73.892853 
	C573.969666,76.507561 576.513367,78.506615 578.008301,81.100662 
	C579.265198,83.281555 579.721375,85.923882 580.682129,88.813354 
	C569.597412,88.813354 559.503052,88.813354 549.064636,88.813354 
	C549.135681,85.376884 547.790833,81.877151 552.275757,80.015839 
	C553.124268,79.663704 554.021912,77.154633 553.585388,76.418114 
	C552.384399,74.391670 550.564026,71.350777 548.851501,71.258484 
	C542.808167,70.932770 536.691650,71.523582 530.644287,72.160164 
	C529.658997,72.263885 528.306702,74.291237 528.161255,75.549362 
	C527.991882,77.014572 528.486694,79.326294 529.527161,80.019943 
	C532.894348,82.264725 533.126404,85.243660 532.886780,88.798294 
	C525.836487,88.798294 519.068665,88.798294 512.255005,88.798294 
	C511.550781,85.033257 512.700989,82.637947 515.309509,79.752251 
	C518.644104,76.063362 520.791565,71.117294 522.777649,66.428001 
	C528.711365,52.418304 534.206055,38.222019 540.206055,24.241907 
	C540.872437,22.689280 543.580750,21.752369 545.530945,21.069292 
	C548.896973,19.890318 549.590393,22.913355 550.520386,24.980560 
	C555.910217,36.960922 561.186584,48.992363 566.727051,61.326614 
M543.264526,63.999641 
	C544.810730,63.910305 546.356934,63.820965 547.996277,63.726246 
	C545.124451,56.885612 542.446655,50.507130 539.662109,43.874279 
	C537.138855,50.821842 534.792603,57.281921 532.352844,63.999645 
	C535.779297,63.999645 539.059021,63.999645 543.264526,63.999641 
z"/>
<path fill="#FF4057" opacity="1.000000" stroke="none" 
	d="
M103.174072,83.649498 
	C103.871704,82.504005 104.292725,81.394600 105.044876,81.082031 
	C107.854660,79.914391 108.449852,78.545029 107.356247,75.415047 
	C106.284973,72.349030 105.309959,70.592636 101.751564,70.953888 
	C96.683449,71.468414 91.566116,71.516068 86.507210,72.091850 
	C85.043411,72.258453 82.705292,73.375877 82.531662,74.366531 
	C82.214706,76.174980 82.933983,78.339027 83.730621,80.127785 
	C84.915749,82.788811 86.543633,85.252663 88.521729,88.753784 
	C79.948624,88.753784 73.195206,88.753784 66.354515,88.753784 
	C65.453079,84.977089 66.938049,82.696411 69.324165,79.733109 
	C73.010963,75.154503 75.515930,69.488686 77.878685,64.006638 
	C83.463074,51.049793 88.674805,37.932201 94.021202,24.873047 
	C95.013351,22.449614 96.182388,20.919535 99.373032,20.837063 
	C102.753860,20.749674 103.469231,22.739389 104.469116,24.966368 
	C111.989159,41.715218 119.481796,58.476555 127.084732,75.187714 
	C127.878326,76.932022 129.410416,78.326042 130.463669,79.969856 
	C132.059708,82.460770 133.536163,85.028297 135.718079,88.649872 
	C123.799034,88.649872 113.743973,88.649872 103.049477,88.649872 
	C103.049477,87.194901 103.049477,85.623146 103.174072,83.649498 
M90.865776,64.000214 
	C94.469711,64.000214 98.073654,64.000214 102.244797,64.000214 
	C99.452599,57.315556 96.887459,51.174484 93.989052,44.235577 
	C91.268341,51.223351 88.850533,57.433147 86.293625,64.000206 
	C87.753738,64.000206 88.871635,64.000206 90.865776,64.000214 
z"/>
<path fill="#DCDCDC" opacity="1.000000" stroke="none" 
	d="
M596.989868,55.914452 
	C593.987732,48.599918 591.091370,41.630146 587.900330,34.798042 
	C587.056152,32.990620 584.988037,31.773355 584.049133,29.986975 
	C582.893372,27.788166 582.311829,25.282883 581.619812,22.870548 
	C581.601685,22.807234 583.173584,22.027231 584.007324,22.020687 
	C591.835266,21.959246 599.664307,22.027937 607.492371,21.971607 
	C609.068604,21.960266 610.642273,21.579670 612.611206,21.316675 
	C613.374268,25.864241 612.088623,29.411049 606.826660,31.164310 
	C611.144348,42.773529 615.367981,54.129799 619.842346,66.160347 
	C622.631470,59.516853 625.353699,53.160828 627.964844,46.759476 
	C629.291260,43.507690 630.889954,40.254505 631.468018,36.849579 
	C631.851624,34.590199 630.945740,31.944838 630.072388,29.682537 
	C629.040161,27.008881 627.421143,24.561775 625.807800,21.552799 
	C634.039062,21.552799 640.682190,21.552799 647.642822,21.552799 
	C648.430359,25.138119 648.240356,27.861830 644.285278,30.714371 
	C641.376770,32.812050 640.047119,37.375599 638.508728,41.047588 
	C632.241455,56.007465 625.918884,70.954086 620.175232,86.117149 
	C618.564087,90.370476 615.795105,88.469398 613.395813,88.988129 
	C610.742065,89.561874 609.838440,87.970840 608.962891,85.750542 
	C605.076721,75.895340 600.995789,66.116928 596.989868,55.914452 
z"/>
<path fill="#FF4057" opacity="1.000000" stroke="none" 
	d="
M55.960922,23.948036 
	C58.005989,24.678562 59.653069,25.364544 60.999821,25.925444 
	C60.999821,29.748947 60.682217,33.385296 61.075851,36.942955 
	C61.636311,42.008396 59.242821,43.422565 54.778488,43.012897 
	C53.793373,42.922501 52.792877,42.999653 51.591461,42.999653 
	C51.067722,40.930153 50.453045,38.954758 50.080112,36.934727 
	C49.267292,32.532001 47.311874,29.374712 42.366722,28.962894 
	C37.400833,28.549353 33.093605,29.093008 29.663012,33.586849 
	C21.320999,44.514305 23.199434,64.197205 30.607334,74.070755 
	C33.988628,78.577477 43.548115,81.409653 49.581043,79.726051 
	C51.756714,79.118896 54.107777,78.637550 55.950649,77.439957 
	C60.477249,74.498314 62.068428,76.750916 63.055614,80.738937 
	C51.182026,93.047600 23.217091,93.017860 12.010915,76.320091 
	C4.049996,64.457924 3.465747,51.264854 9.387916,38.479099 
	C14.909492,26.558201 25.247122,20.854374 38.304935,21.141920 
	C44.075073,21.268984 49.811310,22.935724 55.960922,23.948036 
z"/>
<path fill="#DCDCDC" opacity="1.000000" stroke="none" 
	d="
M380.496307,105.205566 
	C385.680756,103.860825 387.096985,106.729408 388.206360,110.818527 
	C388.595734,109.328308 388.985077,107.838089 389.423096,106.161636 
	C394.409454,106.161636 399.545197,106.161636 404.779297,106.161636 
	C404.911682,107.330368 405.035736,108.425705 405.228638,110.128830 
	C409.102753,105.835152 413.302399,103.711349 418.817078,106.520157 
	C418.817078,108.386650 418.817078,110.497192 418.817078,112.607742 
	C418.479340,112.308670 418.141602,112.009598 417.803833,111.710533 
	C415.876038,113.398438 413.948212,115.086342 412.020386,116.774239 
	C414.537506,117.667595 417.054657,118.560951 420.114777,119.647026 
	C420.114777,114.429474 420.114777,110.461777 420.114777,106.249702 
	C422.719482,106.249702 425.133850,106.249702 427.709839,106.249702 
	C427.459686,109.461945 427.210754,112.658592 426.961792,115.855240 
	C427.532928,115.895798 428.104065,115.936356 428.675201,115.976913 
	C428.847534,112.398445 429.019836,108.819977 429.212982,104.808540 
	C431.858765,105.318428 434.308502,105.790543 436.861816,106.282623 
	C436.861816,112.788559 436.861816,119.081253 436.861816,125.686890 
	C434.402405,125.686890 432.001923,125.686890 429.295685,125.686890 
	C429.067413,123.879898 428.822632,121.941895 428.577820,120.003883 
	C428.128662,120.004753 427.679504,120.005615 427.230347,120.006485 
	C427.120178,122.147423 427.009979,124.288368 426.869812,127.012047 
	C421.688263,127.012047 416.434082,127.294884 411.227020,126.921074 
	C407.181366,126.630646 404.323517,122.033058 403.949036,116.678520 
	C403.862274,115.437805 403.124603,114.242607 402.686462,113.026466 
	C402.117737,114.121185 401.278503,115.158813 401.033112,116.321754 
	C400.399261,119.325668 400.027710,122.384911 399.503479,125.727654 
	C397.679443,125.727654 395.605591,125.727654 393.130524,125.727654 
	C393.130524,121.667198 393.130524,117.563942 393.130524,113.237457 
	C391.323425,113.237457 389.907349,113.237457 388.301270,113.237457 
	C389.048340,115.868538 390.042419,118.421173 390.418488,121.061821 
	C390.632599,122.565361 389.868256,125.563362 389.491119,125.572052 
	C387.336304,125.621689 385.153534,125.028030 383.005615,124.541039 
	C382.065918,124.327980 381.002502,123.350624 380.320099,123.602013 
	C379.122284,124.043282 378.182770,125.868248 377.120697,125.880623 
	C371.708038,125.943718 366.093353,126.415794 360.940735,125.150734 
	C357.157593,124.221909 355.606171,115.887589 358.238831,111.250046 
	C361.152161,106.118080 365.811371,104.399826 371.843750,106.683243 
	C371.841980,108.647926 371.841980,110.611855 371.841980,112.999023 
	C370.916748,112.999023 369.930756,112.693649 369.409393,113.056297 
	C367.847961,114.142403 366.468262,115.489738 365.017609,116.735092 
	C366.596039,117.485512 368.143768,118.313393 369.765167,118.955299 
	C370.642731,119.302734 371.645905,119.332863 372.908417,119.563965 
	C373.733612,116.950226 374.598724,113.277328 376.088104,109.877968 
	C376.855927,108.125557 378.734253,106.859695 380.496307,105.205566 
z"/>
<path fill="#DCDCDC" opacity="1.000000" stroke="none" 
	d="
M468.007996,115.899002 
	C468.754639,112.315865 469.038605,108.732857 469.351166,104.789360 
	C471.866119,105.312111 474.209351,105.799164 476.912476,106.361023 
	C476.912476,108.024384 476.912476,109.748497 476.912476,110.250671 
	C479.756134,108.593330 482.671906,106.347824 485.967285,105.127419 
	C489.241211,103.914963 491.994904,106.079315 492.868439,109.074059 
	C493.674347,111.837044 493.304138,114.971146 493.247925,117.937912 
	C493.233734,118.684158 491.999725,119.463966 492.074951,120.145721 
	C492.469788,123.722939 491.577576,126.409210 487.630432,126.950104 
	C483.253387,127.549919 479.999847,125.751099 478.028931,121.759483 
	C477.847137,121.391296 477.816040,120.948700 477.172333,120.548721 
	C477.172333,122.212929 477.172333,123.877136 477.172333,125.769821 
	C474.398102,125.769821 471.964478,125.769821 469.274292,125.769821 
	C469.085144,123.875893 468.896790,121.989944 468.708466,120.103996 
	C468.410248,120.035347 468.112030,119.966698 467.813843,119.898048 
	C467.188751,122.005669 467.161713,124.778954 465.768036,126.031097 
	C464.412231,127.249229 461.656311,126.909042 459.057495,127.326660 
	C459.057495,122.279572 459.057495,117.849220 459.057495,113.221771 
	C457.598602,113.221771 456.528290,113.221771 455.101105,113.221771 
	C455.101105,117.364059 455.101105,121.461197 455.101105,125.772690 
	C452.346161,125.772690 449.934082,125.772690 447.143799,125.772690 
	C447.143799,121.769730 447.143799,117.681664 447.143799,113.251884 
	C445.626190,113.069885 444.426697,112.926025 443.134827,112.771095 
	C443.134827,110.505150 443.134827,108.547157 443.134827,106.294189 
	C448.239166,106.294189 453.322113,106.294189 458.864319,106.294189 
	C458.944702,107.555168 459.033173,108.942741 459.121643,110.330322 
	C459.316376,110.343361 459.511078,110.356407 459.705780,110.369446 
	C459.864441,109.065475 460.023071,107.761513 460.209839,106.226593 
	C462.258453,106.226593 464.360046,106.226593 466.643372,106.226593 
	C466.943726,109.447296 467.244568,112.673210 468.007996,115.899002 
z"/>
<path fill="#DCDCDC" opacity="1.000000" stroke="none" 
	d="
M139.971649,109.164360 
	C141.884537,105.421417 144.790558,104.658783 148.411591,104.958138 
	C155.799179,105.568855 163.206604,105.939713 170.845032,106.424561 
	C170.938156,107.688011 171.042252,109.100075 171.085800,109.691017 
	C172.581024,108.408386 174.098953,106.348793 176.117844,105.540596 
	C179.723480,104.097214 182.592651,104.416168 183.164169,109.623428 
	C183.593353,113.534027 185.601166,117.247696 186.464401,121.146851 
	C186.777557,122.561363 185.832047,125.597168 185.422150,125.604088 
	C183.286545,125.640182 181.118927,125.013184 179.004196,124.457886 
	C178.130737,124.228531 177.361526,123.602173 176.544891,123.156372 
	C174.706985,128.896378 170.308868,124.729683 166.956314,126.137810 
	C168.398819,121.281487 169.666809,117.012726 170.985336,112.573776 
	C169.375504,112.792725 167.857117,112.999237 165.994232,113.252594 
	C165.994232,117.318703 165.994232,121.435013 165.994232,125.767990 
	C163.585007,125.767990 161.515488,125.767990 159.263382,125.767990 
	C158.728149,121.670242 158.204987,117.664848 157.627380,113.242805 
	C156.473526,113.181473 155.089142,113.107880 153.587280,113.028046 
	C156.183868,121.456444 155.521088,124.367958 149.112961,126.143295 
	C146.186096,126.954170 142.432114,125.340981 139.304001,124.162010 
	C138.907623,124.012611 140.038208,119.811798 140.413239,117.752274 
	C140.245773,115.028633 140.077667,112.294640 139.971649,109.164360 
M147.457703,112.469528 
	C148.756638,112.619034 150.055573,112.768539 151.354507,112.918045 
	C151.354340,112.625763 151.354172,112.333473 151.354004,112.041191 
	C150.257233,112.041191 149.160477,112.041191 147.457703,112.469528 
M153.071594,111.553658 
	C153.277664,111.633835 153.483749,111.714012 153.689819,111.794189 
	C153.629791,111.580406 153.569763,111.366623 153.071594,111.553658 
z"/>
<path fill="#DCDCDC" opacity="1.000000" stroke="none" 
	d="
M509.003357,109.931656 
	C510.836487,108.687103 512.931335,106.879028 514.423645,107.285126 
	C515.930298,107.695099 516.839417,110.300797 517.638977,111.423241 
	C518.031128,110.000175 517.996338,106.508804 519.501709,105.616898 
	C521.222107,104.597588 524.312500,105.890747 526.586060,106.153450 
	C525.677917,111.815033 524.828064,117.112991 523.978271,122.410942 
	C524.208984,122.458359 524.439758,122.505783 524.670471,122.553200 
	C525.702271,119.230637 526.687805,115.892876 527.775024,112.588562 
	C530.303467,104.904106 530.323364,104.910645 538.769043,105.077782 
	C540.201599,110.421776 541.802429,115.898193 543.062195,121.451996 
	C543.364502,122.784622 542.579651,125.625252 542.216064,125.638687 
	C540.164429,125.714470 537.039673,125.838799 536.241150,124.640320 
	C534.608887,122.190590 534.269958,121.805847 532.912964,124.631401 
	C532.550720,125.385643 530.988525,125.913162 529.961731,125.939636 
	C524.872314,126.070831 519.777710,125.999420 514.557556,125.999420 
	C514.051147,124.349045 513.572388,122.788956 513.093689,121.228859 
	C512.460083,126.558716 508.138397,125.425400 505.274811,125.896561 
	C501.690399,126.486313 502.297699,123.508331 501.941528,121.223984 
	C501.172272,116.290062 500.086487,111.405495 499.130127,106.500748 
	C507.374298,105.155762 507.532349,105.257164 508.499115,113.455383 
	C508.771027,111.766365 508.885925,111.052834 509.003357,109.931656 
z"/>
<path fill="#FF4057" opacity="1.000000" stroke="none" 
	d="
M732.068237,26.073544 
	C732.411987,28.255165 732.959106,30.003460 732.962341,31.752758 
	C733.015442,60.522820 733.030640,89.293091 732.950439,118.063026 
	C732.942810,120.803207 732.420776,123.584717 731.772888,126.258690 
	C731.523621,127.287773 730.255920,128.070129 729.452332,128.964905 
	C728.579163,128.116730 727.356934,127.417183 726.917236,126.384468 
	C726.304626,124.945526 726.037903,123.257683 726.035522,121.675735 
	C725.987915,90.577415 725.999939,59.479023 726.000427,28.380646 
	C726.000427,27.549170 725.710754,26.551191 726.066895,25.918327 
	C727.028931,24.208824 728.267090,22.654633 729.395691,21.038830 
	C730.269958,22.572775 731.144226,24.106730 732.068237,26.073544 
z"/>
<path fill="#DCDCDC" opacity="1.000000" stroke="none" 
	d="
M568.026611,126.999298 
	C560.744690,125.562363 559.714905,124.129448 558.581421,113.944603 
	C557.642822,116.856125 556.446472,119.215973 556.202820,121.670403 
	C555.907715,124.643852 555.196350,126.094292 551.806763,126.111282 
	C548.391174,126.128410 546.292297,125.594521 545.816345,121.675407 
	C545.533508,119.345833 544.276428,117.128433 543.414551,114.876984 
	C542.557129,112.637375 541.646118,110.418274 540.421143,107.342873 
	C543.354980,106.703903 545.859497,106.158440 548.462524,105.591530 
	C549.184631,108.652672 549.764648,111.111542 550.328918,113.503448 
	C553.959900,111.802437 549.411011,104.567955 556.023438,105.110077 
	C557.667419,105.244858 559.201660,106.719231 561.399841,107.910294 
	C561.725403,107.703430 563.152466,106.686546 564.678101,105.849541 
	C568.201233,103.916618 572.071228,104.470932 573.749634,107.653938 
	C575.267151,110.531837 574.842896,114.479118 575.057556,117.968208 
	C575.114746,118.897987 573.955261,119.931076 574.070740,120.824036 
	C574.639832,125.221573 572.304932,126.754036 568.026611,126.999298 
z"/>
<path fill="#DCDCDC" opacity="1.000000" stroke="none" 
	d="
M192.999207,125.999985 
	C191.358841,125.345177 189.398987,124.916237 189.134232,123.998344 
	C187.600266,118.680199 186.465652,113.246849 185.079224,107.356689 
	C188.786041,104.574242 191.835449,105.071976 193.090286,108.562149 
	C196.300812,107.407875 199.506287,106.255417 202.711761,105.102951 
	C203.019043,105.517395 203.326340,105.931839 203.633621,106.346283 
	C202.749405,108.073410 201.926422,109.835350 200.968323,111.520462 
	C198.922058,115.119476 196.122894,118.434052 196.993637,123.044014 
	C197.568115,126.085449 195.642822,126.211784 192.999207,125.999985 
z"/>
<path fill="#DDDDDD" opacity="1.000000" stroke="none" 
	d="
M345.898163,118.967506 
	C347.888397,119.934303 351.624420,120.889458 351.624146,121.843521 
	C351.623413,124.361694 350.001984,126.879402 349.025787,129.397293 
	C348.486725,129.307480 347.947632,129.217667 347.408569,129.127853 
	C346.608551,126.664452 345.808563,124.201057 345.032684,121.335281 
	C345.056793,120.932899 344.987732,121.004723 345.349548,120.906525 
	C345.814026,120.176720 345.916656,119.545113 346.019287,118.913513 
	C346.019318,118.913513 345.940918,118.955368 345.898163,118.967506 
z"/>
<path fill="#000000" opacity="1.000000" stroke="none" 
	d="
M345.695618,119.022125 
	C345.916656,119.545113 345.814026,120.176720 345.322083,120.948067 
	C345.079163,120.435448 345.225555,119.783089 345.695618,119.022125 
z"/>
<path fill="#000000" opacity="1.000000" stroke="none" 
	d="
M542.801636,63.999641 
	C539.059021,63.999645 535.779297,63.999645 532.352844,63.999645 
	C534.792603,57.281921 537.138855,50.821842 539.662109,43.874279 
	C542.446655,50.507130 545.124451,56.885612 547.996277,63.726246 
	C546.356934,63.820965 544.810730,63.910305 542.801636,63.999641 
z"/>
<path fill="#000000" opacity="1.000000" stroke="none" 
	d="
M90.427658,64.000214 
	C88.871635,64.000206 87.753738,64.000206 86.293625,64.000206 
	C88.850533,57.433147 91.268341,51.223351 93.989052,44.235577 
	C96.887459,51.174484 99.452599,57.315556 102.244797,64.000214 
	C98.073654,64.000214 94.469711,64.000214 90.427658,64.000214 
z"/>
<path fill="#000000" opacity="1.000000" stroke="none" 
	d="
M147.760712,112.255356 
	C149.160477,112.041191 150.257233,112.041191 151.354004,112.041191 
	C151.354172,112.333473 151.354340,112.625763 151.354507,112.918045 
	C150.055573,112.768539 148.756638,112.619034 147.760712,112.255356 
z"/>
<path fill="#000000" opacity="1.000000" stroke="none" 
	d="
M153.290649,111.353249 
	C153.569763,111.366623 153.629791,111.580406 153.689819,111.794189 
	C153.483749,111.714012 153.277664,111.633835 153.290649,111.353249 
z"/>
</svg>